<?xml version="1.0" standalone="no"?>
<!DOCTYPE svg PUBLIC "-//W3C//DTD SVG 20010904//EN"
 "http://www.w3.org/TR/2001/REC-SVG-20010904/DTD/svg10.dtd">
<svg version="1.0" xmlns="http://www.w3.org/2000/svg"
 width="700.000000pt" height="700.000000pt" viewBox="0 0 700.000000 700.000000"
 preserveAspectRatio="xMidYMid meet">
<metadata>
Created by potrace 1.14, written by Peter Selinger 2001-2017
</metadata>
<g transform="translate(0.000000,700.000000) scale(0.100000,-0.100000)"
fill="#000000" stroke="none">
<path d="M2218 6030 c-48 -10 -92 -21 -97 -25 -6 -3 -20 -8 -31 -10 -38 -7
-183 -87 -254 -139 -207 -153 -340 -377 -391 -656 -4 -25 -5 -25 -107 -23
-154 2 -320 -37 -444 -104 -27 -14 -58 -31 -69 -37 -94 -51 -240 -191 -309
-296 -112 -170 -165 -347 -164 -544 1 -247 90 -477 256 -666 l31 -35 -28 -30
c-50 -53 -109 -138 -145 -210 -218 -430 -111 -925 265 -1230 73 -59 234 -142
330 -170 93 -26 213 -42 303 -39 48 2 86 0 87 -4 1 -4 2 -18 4 -32 5 -55 48
-189 85 -265 112 -233 308 -415 538 -502 177 -66 400 -81 572 -37 271 69 493
248 619 500 44 88 88 227 98 313 8 72 9 3315 0 3401 -17 173 -85 347 -192 490
-118 159 -315 292 -505 341 -25 6 -54 13 -65 16 -11 3 -83 7 -160 8 -107 3
-160 -1 -227 -15z m357 -200 c297 -62 526 -302 578 -606 18 -105 21 -1341 3
-1346 -6 -2 -123 -4 -261 -3 l-250 0 -2 60 c-1 33 -2 67 -2 76 -1 13 -28 15
-218 15 l-218 -1 0 -217 0 -218 35 -1 c148 -3 393 1 398 5 3 4 6 37 6 74 l1
67 261 2 262 1 -1 -947 c0 -1060 1 -1046 -72 -1199 -130 -275 -372 -434 -660
-436 -165 0 -299 39 -435 129 -157 103 -263 247 -322 435 -20 64 -23 96 -23
221 l0 145 -45 -17 c-138 -52 -336 -60 -480 -19 -215 62 -398 216 -494 415
-168 350 -54 768 271 985 l72 48 -39 26 c-22 14 -43 26 -46 26 -4 0 -35 25
-70 55 -338 297 -359 812 -45 1133 224 231 552 296 869 174 12 -4 14 -1 8 14
-13 29 -15 204 -4 265 51 285 248 520 513 610 131 44 285 55 410 29z m-69
-2015 c0 -38 -1 -75 -3 -80 -2 -6 -36 -10 -81 -10 l-77 0 -1 83 -1 83 81 -3
81 -3 1 -70z"/>
<path d="M1994 5331 c-2 -2 -4 -100 -4 -218 0 -196 1 -213 18 -214 24 -1 361
-1 395 0 27 1 27 1 27 76 l0 76 121 -3 122 -3 0 -362 0 -363 68 0 69 0 0 433
0 433 -190 -1 -190 0 0 75 0 75 -216 0 c-118 0 -217 -2 -220 -4z m298 -153 c2
-13 2 -50 0 -84 l-4 -60 -76 1 -77 1 -3 82 -3 82 80 0 c75 0 80 -1 83 -22z"/>
<path d="M1077 4398 c1 -95 2 -194 2 -219 l1 -47 63 0 c34 0 69 0 77 -1 13 -1
15 -36 15 -258 l0 -258 301 -5 301 -5 1 -313 c0 -172 2 -316 6 -319 4 -5 602
-8 677 -4 12 1 15 13 14 64 -1 34 -3 64 -4 67 0 3 -126 5 -279 5 l-277 0 0
320 0 320 -302 0 -302 0 0 193 c0 105 3 192 7 193 4 0 36 2 72 2 l65 2 0 218
1 217 -221 0 -220 0 2 -172z m301 -46 l3 -82 -80 0 c-45 0 -82 3 -82 8 -1 4
-2 39 -3 77 -1 49 2 72 11 75 7 3 43 5 80 5 l68 -1 3 -82z"/>
<path d="M2728 3343 c-2 -5 -3 -353 -3 -775 1 -528 -2 -768 -10 -771 -5 -2
-48 -3 -95 -3 l-85 1 -5 75 -5 75 -215 0 -215 0 -3 -217 c-2 -203 -1 -218 15
-218 35 -1 359 -1 391 -1 l32 1 0 74 0 74 161 -1 c105 0 163 3 167 10 5 8 8
1636 3 1676 -1 4 -30 7 -65 7 -36 0 -66 -3 -68 -7z m-338 -1616 l0 -83 -77 0
-78 1 -5 50 c-3 28 -3 65 -1 83 l3 32 79 0 79 0 0 -83z"/>
<path d="M1079 3238 c-1 -28 -1 -365 0 -394 1 -20 6 -22 72 -20 39 0 74 -3 78
-9 4 -5 7 -144 7 -307 -1 -194 2 -298 9 -299 5 -1 160 -2 343 -2 l333 -2 -3
70 -3 70 -260 1 c-143 1 -265 2 -271 3 -9 1 -11 67 -10 238 l1 238 68 -2 c45
-1 67 2 68 10 1 7 2 105 3 220 l2 207 -218 0 -218 0 -1 -22z m299 -196 l3 -83
-83 3 -83 3 0 75 c0 41 3 77 6 80 4 3 40 5 81 5 l73 0 3 -83z"/>
<path d="M4435 6042 c-52 -6 -188 -44 -245 -70 -134 -58 -302 -199 -387 -323
-88 -129 -140 -262 -170 -437 -8 -51 -10 -3289 -1 -3382 13 -136 41 -238 99
-354 128 -258 377 -452 654 -512 66 -14 290 -13 365 1 148 29 313 100 397 170
98 82 125 107 163 153 25 29 50 59 56 66 25 27 105 175 128 236 13 36 32 102
42 147 l17 81 91 -1 c169 -3 309 29 456 103 516 259 699 888 404 1390 -20 35
-60 90 -89 124 l-52 62 39 44 c155 179 237 392 243 630 6 267 -71 478 -249
683 -42 48 -80 87 -84 87 -5 0 -18 9 -29 20 -39 36 -162 110 -230 139 -132 56
-204 71 -366 77 -65 2 -122 6 -127 9 -4 2 -10 28 -14 56 -23 168 -130 374
-270 515 -158 159 -334 250 -550 284 -63 10 -215 11 -291 2z m320 -217 c287
-72 498 -277 576 -560 24 -86 32 -232 19 -307 -5 -23 -7 -44 -5 -46 1 -1 37 9
79 23 108 36 247 49 351 31 22 -4 57 -9 78 -13 21 -3 40 -10 43 -14 3 -5 13
-9 22 -9 25 0 166 -74 216 -112 264 -206 372 -540 275 -854 -55 -178 -175
-335 -330 -430 l-58 -36 60 -40 c336 -217 455 -646 278 -1001 -130 -262 -379
-422 -669 -432 -116 -4 -182 5 -280 39 l-65 22 0 -145 c0 -125 -3 -157 -23
-221 -84 -266 -275 -457 -533 -535 -70 -21 -127 -28 -219 -28 -182 -1 -318 48
-463 168 -124 102 -220 263 -256 427 -18 83 -19 156 -18 1750 0 1814 -3 1725
57 1876 52 129 153 261 253 329 23 15 44 30 47 33 12 13 120 60 170 74 123 36
278 40 395 11z"/>
<path d="M4550 5410 c-5 -3 -10 -37 -12 -75 l-3 -70 -190 -1 c-104 -1 -197 -2
-206 -3 -14 -1 -16 -100 -16 -1073 l0 -1073 -50 -3 -50 -3 1 -219 0 -220 218
0 218 0 0 220 0 220 -100 0 -100 0 0 628 0 628 395 0 395 -1 0 -370 0 -371
-52 1 c-29 1 -58 0 -63 -2 -11 -4 -13 -368 -3 -379 6 -5 232 -8 351 -5 l27 1
0 193 0 194 -60 -2 -60 -2 0 373 0 374 228 0 228 0 -1 -202 0 -203 -60 -1 -60
0 0 -195 0 -194 180 -1 c99 0 186 2 192 4 9 3 12 52 12 193 0 213 9 191 -82
191 -30 0 -38 4 -41 21 -3 12 -5 126 -4 252 0 127 0 240 -1 252 l-1 22 -760
-4 -760 -4 2 312 3 312 135 1 135 0 5 -75 5 -75 200 -1 c110 -1 207 1 216 3
15 3 17 27 17 218 0 153 -3 214 -12 215 -44 4 -410 3 -416 -1z m288 -216 l3
-81 -81 0 c-44 0 -80 3 -81 6 -1 8 -1 100 0 132 1 25 2 26 79 25 l77 -1 3 -81z
m930 -1426 l3 -55 -56 0 -55 1 0 56 0 56 53 -1 52 -1 3 -56z m-597 -286 c1 -4
2 -28 3 -54 2 -52 -2 -55 -69 -54 l-40 1 -1 50 c-1 28 0 53 2 56 4 8 104 9
105 1z m-846 -590 c0 -41 -3 -76 -8 -79 -7 -4 -62 -6 -134 -4 -22 1 -23 5 -23
81 l0 81 82 -3 82 -3 1 -73z"/>
<path d="M5525 3192 c-3 -3 -5 -90 -5 -194 l0 -188 63 0 62 0 1 -190 c0 -185
0 -191 -20 -195 -12 -2 -122 -4 -246 -4 -124 1 -233 0 -242 0 -15 -1 -18 -11
-18 -68 l0 -68 330 0 c213 0 330 4 331 10 0 6 1 124 1 263 l1 252 63 0 64 0
-3 193 -2 192 -188 1 c-103 0 -189 -2 -192 -4z m245 -186 l0 -54 -45 -4 c-24
-2 -49 -2 -55 0 -5 2 -10 28 -10 58 l0 54 55 0 55 0 0 -54z"/>
<path d="M4722 2323 c0 -269 -1 -495 -1 -503 -1 -13 -20 -15 -118 -14 -65 1
-123 2 -130 3 -8 1 -13 26 -15 74 l-3 72 -200 0 c-110 1 -207 -1 -216 -3 -14
-3 -16 -29 -16 -218 0 -210 1 -214 21 -215 72 -3 407 -1 411 2 2 3 5 37 6 76
l2 71 111 0 c61 0 150 1 199 1 l87 1 0 570 0 570 -68 0 -69 0 -1 -487z m-397
-588 l0 -80 -80 0 -80 0 -2 82 -3 81 83 -1 82 -2 0 -80z"/>
</g>
</svg>
